<svg width="53" height="38" viewBox="0 0 53 38" fill="none" xmlns="http://www.w3.org/2000/svg">
<path d="M51.8925 5.94571C51.283 3.60535 49.487 1.76215 47.2067 1.13664C43.0736 0 26.5 0 26.5 0C26.5 0 9.92652 0 5.79324 1.13664C3.51296 1.76225 1.71703 3.60535 1.10749 5.94571C0 10.1878 0 19.0384 0 19.0384C0 19.0384 0 27.889 1.10749 32.1311C1.71703 34.4714 3.51296 36.2379 5.79324 36.8634C9.92652 38 26.5 38 26.5 38C26.5 38 43.0735 38 47.2067 36.8634C49.487 36.2379 51.283 34.4714 51.8925 32.1311C53 27.889 53 19.0384 53 19.0384C53 19.0384 53 10.1878 51.8925 5.94571ZM21.0795 27.0741V11.0027L34.9317 19.0386L21.0795 27.0741Z" fill="#6C3409"/>
</svg>
